<svg width="1440" height="137" viewBox="0 0 1440 137" fill="none" xmlns="http://www.w3.org/2000/svg">
<path d="M378.894 119.524C205.57 167.136 54.0798 99.6853 0 60.0085V27H1440V119.524C1431.77 113.189 1381.86 92.4167 1248.03 60.0085C1080.76 19.4982 1001.94 190.542 813 119.524C624.057 48.5056 595.549 60.0085 378.894 119.524Z" fill="#A4DBDD"/>
<path d="M378.894 92.5237C205.57 140.136 54.0798 72.6853 0 33.0085V0H1440V92.5237C1431.77 86.1887 1381.86 65.4167 1248.03 33.0085C1080.76 -7.50183 1001.94 163.542 813 92.5237C624.057 21.5056 595.549 33.0085 378.894 92.5237Z" fill="#181823"/>
</svg>
