<svg id="Capa_1" enable-background="new 0 0 512 512" height="512" viewBox="0 0 512 512" width="512" xmlns="http://www.w3.org/2000/svg"><g><path d="m384.654 153.657-20.78-44.081h-92.874v-63.642c0-8.787 7.147-15.934 15.934-15.934h74.24v-30h-74.24c-25.329 0-45.934 20.605-45.934 45.934v63.642h-92.874l-20.78 44.081h-19.606v46.867h296.52v-46.867z"/><path d="m256 413.756c23.431 0 42.493-19.063 42.493-42.494s-19.063-42.493-42.493-42.493-42.493 19.063-42.493 42.493c0 23.431 19.062 42.494 42.493 42.494z"/><path d="m151.373 512h209.255l27.028-281.476h-263.311zm104.627-213.231c39.973 0 72.493 32.521 72.493 72.493 0 39.974-32.521 72.494-72.493 72.494s-72.493-32.521-72.493-72.494 32.52-72.493 72.493-72.493z"/></g></svg>